<?xml version="1.0" encoding="UTF-8"?>
<svg version="1.1" xmlns="http://www.w3.org/2000/svg" width="32" height="32">
<path d="M0 0 C2.49503722 2.19260847 2.79843684 3.55572102 3.0625 6.8125 C1.7425 7.8025 0.4225 8.7925 -0.9375 9.8125 C1.0425 10.4725 3.0225 11.1325 5.0625 11.8125 C4.61373384 13.46096769 4.15319512 15.10623455 3.6875 16.75 C3.30464844 18.12478516 3.30464844 18.12478516 2.9140625 19.52734375 C2.0625 21.8125 2.0625 21.8125 0.0625 22.8125 C-0.9275 22.4825 -1.9175 22.1525 -2.9375 21.8125 C-3.9275 24.1225 -4.9175 26.4325 -5.9375 28.8125 C-6.9275 28.4825 -7.9175 28.1525 -8.9375 27.8125 C-10.125 24.25 -10.125 24.25 -10.9375 20.8125 C-12.9175 21.8025 -12.9175 21.8025 -14.9375 22.8125 C-16.74992323 18.7936485 -18.27251617 15.20139325 -18.9375 10.8125 C-16.9575 10.4825 -14.9775 10.1525 -12.9375 9.8125 C-14.5875 8.4925 -16.2375 7.1725 -17.9375 5.8125 C-17.8125 4 -17.8125 4 -16.9375 1.8125 C-11.51171864 -1.89291166 -6.12049142 -2.47424121 0 0 Z " fill="#000000" transform="translate(22.9375,2.1875)"/>
</svg>
